{
	"buffers":[{
		"uri":"data:application/octet-stream;base64,",
		"byteLength":1215340
	},
	{
		"uri":"data:application/octet-stream;base64,",
		"byteLength":670004
	},
	{
		"uri":"data:application/octet-stream;base64,",
		"byteLength":5436
	}],
	"asset":{
		"version":"2.0",
		"generator":"Created using the official Cinema 4D glTF Exporter 1.000x284978"
	},
	"scenes":[{
		"nodes":[0,
		1]
	}],
	"materials":[{
		"pbrMetallicRoughness":{
			"baseColorFactor":[0.2062350119904074,
			0.2062350119904074,
			0.2062350119904074,
			1.0],
			"roughnessFactor":1.0,
			"metallicFactor":1.0
		},
		"emissiveFactor":[0.0,
		0.0,
		0.0],
		"alphaMode":"OPAQUE",
		"doubleSided":true,
		"name":"PBR"
	},
	{
		"pbrMetallicRoughness":{
			"baseColorFactor":[0.5419664268585134,
			0.7328137490007992,
			1.0,
			1.0],
			"roughnessFactor":1.0,
			"metallicFactor":1.0
		},
		"emissiveFactor":[0.0,
		0.0,
		0.0],
		"alphaMode":"OPAQUE",
		"doubleSided":true,
		"name":"PBR.1"
	}],
	"nodes":[{
		"name":"AB",
		"mesh":0,
		"translation":[-4.237375259399414,
		6.766157627105713,
		-4.452360153198242],
		"rotation":[0.7071067690849304,
		0.0,
		0.0,
		-0.7071067690849304],
		"scale":[1.0,
		1.0,
		1.0]
	},
	{
		"name":"AJ",
		"mesh":1,
		"translation":[-4.237374782562256,
		4.9086198806762699,
		-4.447457313537598],
		"rotation":[0.0,
		0.0,
		0.7071067690849304,
		-0.7071067690849304],
		"scale":[1.0,
		1.0,
		1.0]
	}],
	"meshes":[{
		"name":"AB",
		"primitives":[{
			"attributes":{
				"POSITION":1,
				"NORMAL":2,
				"TEXCOORD_0":3
			},
			"indices":0,
			"material":0
		}]
	},
	{
		"name":"AJ",
		"primitives":[{
			"attributes":{
				"POSITION":5,
				"NORMAL":6,
				"TEXCOORD_0":7
			},
			"indices":4,
			"material":1
		}]
	}],
	"accessors":[{
		"bufferView":0,
		"type":"SCALAR",
		"componentType":5123,
		"count":128838,
		"byteOffset":0,
		"min":[0],
		"max":[29926]
	},
	{
		"bufferView":1,
		"type":"VEC3",
		"componentType":5126,
		"count":29927,
		"byteOffset":0,
		"min":[-1.665005087852478,
		-2.1138460636138918,
		-0.3226219117641449],
		"max":[1.665005087852478,
		2.1138460636138918,
		0.3226219117641449]
	},
	{
		"bufferView":1,
		"type":"VEC3",
		"componentType":5126,
		"count":29927,
		"byteOffset":12,
		"min":[-1.0,
		-0.9990469813346863,
		-0.9981587529182434],
		"max":[1.0,
		0.9999996423721314,
		0.9999908208847046]
	},
	{
		"bufferView":1,
		"type":"VEC2",
		"componentType":5126,
		"count":29927,
		"byteOffset":24,
		"min":[0.0,
		0.0031059980392456056],
		"max":[0.99853515625,
		1.0]
	},
	{
		"bufferView":2,
		"type":"SCALAR",
		"componentType":5123,
		"count":67434,
		"byteOffset":0,
		"min":[0],
		"max":[16722]
	},
	{
		"bufferView":3,
		"type":"VEC3",
		"componentType":5126,
		"count":16723,
		"byteOffset":0,
		"min":[-1.5150049924850464,
		-0.3385219871997833,
		-1.9561705589294434],
		"max":[1.5150049924850464,
		0.3385219871997833,
		1.9561705589294434]
	},
	{
		"bufferView":3,
		"type":"VEC3",
		"componentType":5126,
		"count":16723,
		"byteOffset":12,
		"min":[-1.0,
		-0.9981396794319153,
		-0.9991934895515442],
		"max":[1.0,
		0.9995083212852478,
		0.9994186758995056]
	},
	{
		"bufferView":3,
		"type":"VEC2",
		"componentType":5126,
		"count":16723,
		"byteOffset":24,
		"min":[0.016918860375881196,
		0.24644580483436585],
		"max":[0.9960361123085022,
		0.9975440502166748]
	},
	{
		"bufferView":4,
		"type":"SCALAR",
		"componentType":5126,
		"count":151,
		"byteOffset":0,
		"min":[0.0],
		"max":[5.0]
	},
	{
		"bufferView":4,
		"type":"VEC3",
		"componentType":5126,
		"count":151,
		"byteOffset":604,
		"min":[-4.237374782562256,
		4.9086198806762699,
		-4.447457313537598],
		"max":[-4.237374782562256,
		6.841121196746826,
		-4.447457313537598]
	},
	{
		"bufferView":5,
		"type":"SCALAR",
		"componentType":5126,
		"count":151,
		"byteOffset":0,
		"min":[0.0],
		"max":[5.0]
	},
	{
		"bufferView":5,
		"type":"VEC4",
		"componentType":5126,
		"count":151,
		"byteOffset":604,
		"min":[0.0,
		0.0,
		0.0,
		-1.0],
		"max":[0.0,
		0.0,
		0.7071067690849304,
		-0.7071067690849304]
	}],
	"bufferViews":[{
		"buffer":0,
		"byteOffset":0,
		"byteLength":257676,
		"target":34963
	},
	{
		"buffer":0,
		"byteOffset":257676,
		"byteLength":957664,
		"target":34962,
		"byteStride":32
	},
	{
		"buffer":1,
		"byteOffset":0,
		"byteLength":134868,
		"target":34963
	},
	{
		"buffer":1,
		"byteOffset":134868,
		"byteLength":535136,
		"target":34962,
		"byteStride":32
	},
	{
		"buffer":2,
		"byteOffset":0,
		"byteLength":2416
	},
	{
		"buffer":2,
		"byteOffset":2416,
		"byteLength":3020
	}],
	"animations":[{
		"samplers":[{
			"input":8,
			"interpolation":"LINEAR",
			"output":9
		},
		{
			"input":10,
			"interpolation":"LINEAR",
			"output":11
		}],
		"channels":[{
			"sampler":0,
			"target":{
				"node":1,
				"path":"translation"
			}
		},
		{
			"sampler":1,
			"target":{
				"node":1,
				"path":"rotation"
			}
		}]
	}]
}